# Blender v3.1.2 OBJ File: 'hetero-nori-1.blend'
# www.blender.org
o walls_backWall
v 10.843332 12.119975 -11.556910
v -11.494120 12.119975 -11.556910
v -11.162375 -5.462476 -11.556912
v 10.843332 -5.462476 -11.556912
v 10.843332 12.119975 -11.556910
v 10.843332 12.119971 10.891124
v -11.494120 12.119971 10.891124
v -11.494120 12.119975 -11.556910
v 10.843332 -5.462476 -11.556912
v -11.162375 -5.462476 -11.556912
v -11.383538 -5.462480 10.891121
v 10.843332 -5.462480 10.891121
vt 0.000000 1.000000
vt 0.000000 1.000000
vt 0.000000 1.000000
vt 0.000000 1.000000
vt 0.000000 1.000000
vt 0.000000 1.000000
vt 0.000000 1.000000
vt 0.000000 1.000000
vt 0.000000 1.000000
vt 0.000000 1.000000
vt 0.000000 1.000000
vt 0.000000 1.000000
vn 0.0000 -0.0000 1.0000
vn 0.0000 -1.0000 -0.0000
vn 0.0000 1.0000 0.0000
s 1
f 1/1/1 2/2/1 3/3/1
f 4/4/1 1/1/1 3/3/1
f 5/5/2 6/6/2 7/7/2
f 8/8/2 5/5/2 7/7/2
f 9/9/3 10/10/3 11/11/3
f 12/12/3 9/9/3 11/11/3
