# Blender v3.1.2 OBJ File: 'room_1.blend'
# www.blender.org
o cloud5_bbox_2_Cube.001
v -10.569981 -6.408127 47.276405
v -10.569981 46.824398 47.276405
v -18.354584 -6.408127 28.067076
v -18.354584 46.824398 28.067076
v 8.639347 -6.408127 39.491798
v 8.639347 46.824398 39.491798
v 0.854744 -6.408127 20.282473
v 0.854744 46.824398 20.282473
v 22.949980 46.824398 11.328354
v 22.949980 -6.408127 11.328354
v 30.734583 -6.408127 30.537680
v 30.734583 46.824398 30.537680
v -20.648479 46.824398 22.406645
v -20.648479 -6.408127 22.406645
v -1.439152 -6.408127 14.622042
v -1.439152 46.824398 14.622042
v -7.884576 -6.408127 53.902924
v -7.884576 46.824398 53.902924
v 11.324751 46.824398 46.118317
v 11.324751 -6.408127 46.118317
v 33.419983 46.824398 37.164200
v 33.419983 -6.408127 37.164200
v -32.808365 -6.408127 33.924488
v -25.023764 -6.408127 53.133816
v -25.023764 46.824398 53.133816
v -32.808365 46.824398 33.924488
v -35.102264 46.824398 28.264057
v -35.102264 -6.408127 28.264057
v -22.338360 -6.408127 59.760334
v -22.338360 46.824398 59.760334
vt 0.625000 1.000000
vt 0.375000 1.000000
vt 0.375000 1.000000
vt 0.375000 0.500000
vt 0.625000 0.500000
vt 0.625000 0.500000
vt 0.375000 0.500000
vt 0.125000 0.750000
vt 0.125000 0.750000
vt 0.125000 0.750000
vt 0.125000 0.500000
vt 0.875000 0.500000
vt 0.625000 0.750000
vt 0.625000 0.500000
vt 0.375000 0.750000
vt 0.375000 0.750000
vt 0.375000 0.750000
vt 0.625000 0.250000
vt 0.375000 0.500000
vt 0.375000 0.250000
vt 0.875000 0.500000
vt 0.875000 0.500000
vt 0.625000 0.750000
vt 0.625000 0.750000
vt 0.625000 0.750000
vt 0.375000 0.750000
vt 0.875000 0.750000
vt 0.625000 0.000000
vt 0.375000 0.250000
vt 0.375000 0.000000
vt 0.625000 0.000000
vt 0.625000 0.250000
vt 0.375000 0.250000
vt 0.875000 0.750000
vt 0.875000 0.750000
vt 0.125000 0.500000
vt 0.125000 0.500000
vt 0.875000 0.750000
vt 0.125000 0.500000
vt 0.625000 0.250000
vt 0.625000 1.000000
vt 0.125000 0.750000
vt 0.875000 0.500000
vt 0.375000 0.000000
vn 0.3756 0.0000 0.9268
vn 0.9268 0.0000 -0.3756
vn -0.3756 0.0000 -0.9268
vn 0.0000 -1.0000 0.0000
vn 0.0000 1.0000 -0.0000
vn -0.9268 0.0000 0.3756
s off
f 18/1/1 29/2/1 17/3/1
f 7/4/2 16/5/2 8/6/2
f 8/6/3 10/7/3 7/4/3
f 17/8/4 24/9/4 1/10/4
f 7/4/4 1/10/4 3/11/4
f 4/12/5 6/13/5 8/6/5
f 9/14/2 11/15/2 10/7/2
f 11/15/4 20/16/4 5/17/4
f 7/4/4 11/15/4 5/17/4
f 6/13/5 9/14/5 8/6/5
f 13/18/3 15/19/3 14/20/3
f 3/11/4 15/19/4 7/4/4
f 8/6/5 13/21/5 4/12/5
f 13/21/5 26/22/5 4/12/5
f 19/23/1 17/3/1 20/16/1
f 20/16/1 21/24/1 19/23/1
f 5/17/4 17/8/4 1/10/4
f 6/13/5 21/24/5 12/25/5
f 12/25/2 22/26/2 11/15/2
f 2/27/5 19/23/5 6/13/5
f 25/28/6 23/29/6 24/30/6
f 24/30/6 30/31/6 25/28/6
f 26/32/6 28/33/6 23/29/6
f 2/27/5 30/34/5 18/35/5
f 3/11/4 28/36/4 14/37/4
f 4/12/5 25/38/5 2/27/5
f 1/10/4 23/39/4 3/11/4
f 14/20/3 27/40/3 13/18/3
f 18/1/1 30/41/1 29/2/1
f 7/4/2 15/19/2 16/5/2
f 8/6/3 9/14/3 10/7/3
f 17/8/4 29/42/4 24/9/4
f 7/4/4 5/17/4 1/10/4
f 4/12/5 2/27/5 6/13/5
f 9/14/2 12/25/2 11/15/2
f 11/15/4 22/26/4 20/16/4
f 7/4/4 10/7/4 11/15/4
f 6/13/5 12/25/5 9/14/5
f 13/18/3 16/5/3 15/19/3
f 3/11/4 14/37/4 15/19/4
f 8/6/5 16/5/5 13/21/5
f 13/21/5 27/43/5 26/22/5
f 19/23/1 18/1/1 17/3/1
f 20/16/1 22/26/1 21/24/1
f 5/17/4 20/16/4 17/8/4
f 6/13/5 19/23/5 21/24/5
f 12/25/2 21/24/2 22/26/2
f 2/27/5 18/35/5 19/23/5
f 25/28/6 26/32/6 23/29/6
f 24/30/6 29/44/6 30/31/6
f 26/32/6 27/40/6 28/33/6
f 2/27/5 25/38/5 30/34/5
f 3/11/4 23/39/4 28/36/4
f 4/12/5 26/22/5 25/38/5
f 1/10/4 24/9/4 23/39/4
f 14/20/3 28/33/3 27/40/3
