# Blender v3.1.2 OBJ File: 'room_1.blend'
# www.blender.org
o cloud5_bbox_BoundingBox.003
v 22.098080 -5.321083 11.870289
v 32.427570 -5.321083 38.160210
v -23.551155 -5.321083 60.154644
v -33.880650 -5.321083 33.864723
v 22.098080 45.183426 11.870289
v 32.427570 45.183426 38.160210
v -23.551155 45.183426 60.154644
v -33.880650 45.183426 33.864723
vn 0.0000 -1.0000 0.0000
vn 0.0000 1.0000 0.0000
vn 0.9307 0.0000 -0.3657
vn 0.3657 0.0000 0.9307
vn -0.9307 0.0000 0.3657
vn -0.3657 0.0000 -0.9307
s off
f 2//1 4//1 1//1
f 8//2 6//2 5//2
f 5//3 2//3 1//3
f 6//4 3//4 2//4
f 7//5 4//5 3//5
f 1//6 8//6 5//6
f 2//1 3//1 4//1
f 8//2 7//2 6//2
f 5//3 6//3 2//3
f 6//4 7//4 3//4
f 7//5 8//5 4//5
f 1//6 4//6 8//6
