# Blender v3.1.2 OBJ File: 'room_1.blend'
# www.blender.org
o cloud3_3_bbox_BoundingBox.007
v 6.249085 0.427264 6.463610
v 10.053713 0.427264 16.433186
v 4.732171 0.427264 18.464012
v 0.927543 0.427264 8.494437
v 6.249085 10.089605 6.463610
v 10.053713 10.089605 16.433186
v 4.732171 10.089605 18.464012
v 0.927543 10.089605 8.494437
vn 0.0000 -1.0000 -0.0000
vn 0.0000 1.0000 0.0000
vn 0.9343 0.0000 -0.3565
vn 0.3565 0.0000 0.9343
vn -0.9343 0.0000 0.3565
vn -0.3565 0.0000 -0.9343
s off
f 2//1 4//1 1//1
f 8//2 6//2 5//2
f 5//3 2//3 1//3
f 6//4 3//4 2//4
f 7//5 4//5 3//5
f 1//6 8//6 5//6
f 2//1 3//1 4//1
f 8//2 7//2 6//2
f 5//3 6//3 2//3
f 6//4 7//4 3//4
f 7//5 8//5 4//5
f 1//6 4//6 8//6
