# Blender v3.1.2 OBJ File: 'room_1.blend'
# www.blender.org
o reactor_emitter_reactor_emitter_Cylinder.006
v 9.460128 1.688774 11.807030
v 9.392967 1.580220 11.848685
v 9.454834 1.698190 11.807149
v 9.593187 1.587032 11.938381
v 9.518873 1.707232 11.834352
v 9.597195 1.589597 11.947521
v 9.402328 1.578560 11.845836
v 9.519867 1.697156 11.832438
v 9.439265 1.510679 11.915588
v 9.564837 1.531505 11.958328
v 9.566754 1.530092 11.968865
v 9.445730 1.513368 11.908554
vt 0.253905 1.000000
vt 0.079428 0.500000
vt 0.253905 0.500000
vt 0.587238 1.000000
vt 0.412762 0.500000
vt 0.587238 0.500000
vt 0.200473 0.404217
vt 0.091681 0.215783
vt 0.141207 0.130000
vt 0.920571 0.500000
vt 0.746095 1.000000
vt 0.746095 0.500000
vt -0.000000 1.000000
vt -0.000000 0.500000
vt 0.412762 1.000000
vt 0.799527 0.404217
vt 0.908319 0.215783
vt 0.858793 0.130000
vt 0.079428 1.000000
vt 0.358793 0.130000
vt 0.408319 0.215783
vt 0.299527 0.404217
vt 0.920571 1.000000
vt 0.591681 0.215783
vt 0.700473 0.404217
vt 0.641207 0.130000
vn -0.3140 -0.1646 -0.9351
vn -0.3138 -0.1647 -0.9351
vn -0.3140 -0.1646 -0.9350
vn 0.8841 0.1698 -0.4353
vn 0.8841 0.1698 -0.4354
vn 0.3992 -0.4836 -0.7790
vn 0.2168 -0.9616 -0.1683
vn 0.2168 -0.9616 -0.1684
vn -0.3092 -0.7582 -0.5741
vn 0.8340 -0.5057 -0.2207
vn 0.8336 -0.5057 -0.2223
vn 0.8332 -0.5058 -0.2235
vn 0.3576 0.2092 -0.9102
vn 0.3570 0.2110 -0.9100
vn 0.3580 0.2082 -0.9102
vn -0.3992 0.4836 0.7790
vn -0.3137 -0.1647 -0.9351
vn 0.3992 -0.4836 -0.7789
vn 0.8344 -0.5056 -0.2196
vn 0.3566 0.2120 -0.9099
s 1
f 1/1/1 2/2/2 3/3/3
f 4/4/4 5/5/5 6/6/4
f 7/7/6 1/8/6 8/9/6
f 9/10/7 10/11/8 11/12/8
f 2/2/9 12/13/9 9/14/9
f 6/6/10 10/11/11 4/4/12
f 1/1/13 5/5/14 8/15/15
f 9/16/16 11/17/16 6/18/16
f 1/1/1 7/19/17 2/2/2
f 4/4/4 8/15/5 5/5/5
f 8/9/6 4/20/6 7/7/6
f 4/20/6 10/21/6 12/22/18
f 7/7/6 4/20/6 12/22/18
f 9/10/7 12/23/7 10/11/8
f 2/2/9 7/19/9 12/13/9
f 6/6/10 11/12/19 10/11/11
f 1/1/13 3/3/20 5/5/14
f 3/24/16 2/25/16 5/26/16
f 2/25/16 9/16/16 6/18/16
f 5/26/16 2/25/16 6/18/16
