# Blender v3.1.2 OBJ File: 'my_cbox.blend'
# www.blender.org
o BoundingBox
v 0.483579 0.251673 -0.474785
v 0.483579 0.251673 0.571585
v -0.459179 0.251673 0.571585
v -0.459179 0.251673 -0.474785
v 0.483579 1.067454 -0.474785
v 0.483579 1.067454 0.571585
v -0.459179 1.067454 0.571585
v -0.459179 1.067454 -0.474785
vn 0.0000 -1.0000 0.0000
vn 0.0000 1.0000 0.0000
vn 1.0000 0.0000 0.0000
vn 0.0000 0.0000 1.0000
vn -1.0000 0.0000 0.0000
vn 0.0000 0.0000 -1.0000
s off
f 2//1 4//1 1//1
f 8//2 6//2 5//2
f 5//3 2//3 1//3
f 6//4 3//4 2//4
f 7//5 4//5 3//5
f 1//6 8//6 5//6
f 2//1 3//1 4//1
f 8//2 7//2 6//2
f 5//3 6//3 2//3
f 6//4 7//4 3//4
f 7//5 8//5 4//5
f 1//6 4//6 8//6
