# Blender v3.1.0 OBJ File: 'aerial_landscape_hw5.blend'
# www.blender.org
o atmosphere.001_Cube.001
v -4853.779297 -21.640411 2051.220703
v -4853.779297 -21.640411 -2371.625977
v 24409.095703 -103.075226 -16326.813477
v 24409.095703 -103.075226 16006.407227
v -4853.781250 970.853333 2051.220947
v -4853.781250 970.853333 -2371.626221
v 24409.097656 970.853333 -16326.814453
v 24409.097656 970.853333 16006.408203
v 5341.158691 970.853333 -5680.180176
v 5341.158691 -78.681480 -5680.179688
v 5341.158691 970.853333 5359.774902
v 5341.158691 -78.681480 5359.774414
vn -1.0000 -0.0000 0.0000
vn -0.4875 0.0000 -0.8731
vn 1.0000 0.0000 0.0000
vn -0.3087 -0.0000 0.9512
vn -0.0013 -1.0000 0.0000
vn 0.0000 1.0000 0.0000
vn -0.3087 -0.0000 -0.9512
vn -0.4875 0.0000 0.8731
vn -0.0056 -1.0000 0.0000
s off
f 6//1 1//1 5//1
f 7//2 10//2 9//2
f 8//3 3//3 7//3
f 11//4 1//4 12//4
f 10//5 4//5 12//5
f 9//6 5//6 11//6
f 9//7 2//7 6//7
f 8//8 12//8 4//8
f 2//9 12//9 1//9
f 8//6 9//6 11//6
f 6//1 2//1 1//1
f 7//2 3//2 10//2
f 8//3 4//3 3//3
f 11//4 5//4 1//4
f 10//5 3//5 4//5
f 9//6 6//6 5//6
f 9//7 10//7 2//7
f 8//8 11//8 12//8
f 2//9 10//9 12//9
f 8//6 7//6 9//6
