# Blender v3.1.0 OBJ File: 'aerial_landscape_hw5.blend'
# www.blender.org
o building.002_Cube
v -1379.446533 0.028324 -263.013977
v -1379.446533 0.028324 -293.013977
v -1349.446533 0.028324 -293.013977
v -1349.446533 0.028324 -263.013977
v -1379.446533 100.028320 -263.013977
v -1379.446533 100.028320 -293.013977
v -1349.446533 100.028320 -293.013977
v -1349.446533 100.028320 -263.013977
vn -1.0000 0.0000 0.0000
vn 0.0000 0.0000 -1.0000
vn 1.0000 0.0000 0.0000
vn 0.0000 0.0000 1.0000
vn 0.0000 -1.0000 0.0000
vn 0.0000 1.0000 0.0000
s off
f 6//1 1//1 5//1
f 7//2 2//2 6//2
f 8//3 3//3 7//3
f 5//4 4//4 8//4
f 2//5 4//5 1//5
f 7//6 5//6 8//6
f 6//1 2//1 1//1
f 7//2 3//2 2//2
f 8//3 4//3 3//3
f 5//4 1//4 4//4
f 2//5 3//5 4//5
f 7//6 6//6 5//6
